<?xml version="1.0" encoding="iso-8859-1"?>
<!-- Generator: Adobe Illustrator 19.0.0, SVG Export Plug-In . SVG Version: 6.00 Build 0)  -->
<svg version="1.1" id="Capa_1" xmlns="http://www.w3.org/2000/svg" xmlns:xlink="http://www.w3.org/1999/xlink" x="0px" y="0px"
	 viewBox="0 0 425.062 425.062" style="enable-background:new 0 0 425.062 425.062;" xml:space="preserve">
<g>
	<g>
		<path d="M186.966,99.912c-5.749-4.765-12.979-7.375-20.446-7.381h-20.05c-1.105,0.003-1.998,0.9-1.995,2.005
			c0.001,0.441,0.148,0.87,0.418,1.219l50.442,64.744l65.4,0.105L186.966,99.912z"/>
	</g>
</g>
<g>
	<g>
		<path d="M395.579,176.531L395.579,176.531l-0.013,0l-321.954-0.37c-10.502,0.043-20.235-5.497-25.56-14.549l-28.238-34.14
			c-2.123-2.573-5.287-4.062-8.623-4.057C5.011,123.414,0.001,128.424,0,134.604c0,1.62,0.351,3.221,1.03,4.691l30.564,66.221
			c0.058,0.126,0.113,0.253,0.164,0.381c1.779,4.742,5.99,8.147,11,8.894L195.15,231.21c4.393,0.474,7.57,4.419,7.096,8.811
			c-0.183,1.694-0.901,3.286-2.051,4.543l-77.52,84.713c-0.693,0.86-0.556,2.119,0.304,2.812c0.354,0.285,0.795,0.441,1.25,0.442
			h29.43c7.678,0,15.1-2.76,20.913-7.776c0.063-0.055,0.126-0.1,0.191-0.158l102.3-82.918c1.465-1.183,3.299-1.815,5.182-1.784
			l113.4,2.053c16.227-0.041,29.417-14.777,29.417-32.709C425.063,190.979,412.112,176.531,395.579,176.531z"/>
	</g>
</g>
<g>
</g>
<g>
</g>
<g>
</g>
<g>
</g>
<g>
</g>
<g>
</g>
<g>
</g>
<g>
</g>
<g>
</g>
<g>
</g>
<g>
</g>
<g>
</g>
<g>
</g>
<g>
</g>
<g>
</g>
</svg>
